<svg width="512" height="512" viewBox="0 0 512 512" fill="none" xmlns="http://www.w3.org/2000/svg">
<path d="M238.75 47.9999C238.6 48.2499 236.45 48.4999 234 48.4999C231.55 48.4999 229.4 48.6999 229.25 48.9999C229.1 49.2499 227.5 49.4999 225.7 49.4999C223.9 49.4999 222.5 49.6999 222.5 49.9999C222.5 50.2999 221.15 50.4999 219.5 50.4999C217.85 50.4999 216.5 50.6999 216.5 50.9999C216.5 51.2499 215.4 51.4999 214 51.4999C212.65 51.4999 211.5 51.6999 211.5 51.9999C211.5 52.2499 210.6 52.4999 209.55 52.4999C208.45 52.4999 207.4 52.6999 207.25 52.9999C207.1 53.2499 206.2 53.4999 205.25 53.4999C204.3 53.4999 203.4 53.6999 203.25 53.9999C203.1 54.2499 202.15 54.4999 201.2 54.4999C200.25 54.4999 199.5 54.6999 199.5 54.9999C199.5 55.2499 198.6 55.4999 197.5 55.4999C196.4 55.4999 195.5 55.6999 195.5 55.9999C195.5 56.2499 194.85 56.4999 194 56.4999C193.2 56.4999 192.5 56.6999 192.5 56.9999C192.5 57.2499 191.85 57.4999 191 57.4999C190.2 57.4999 189.5 57.6999 189.5 57.9999C189.5 58.2499 188.85 58.4999 188 58.4999C187.2 58.4999 186.5 58.6999 186.5 58.9999C186.5 59.2499 185.85 59.4999 185 59.4999C184.2 59.4999 183.5 59.6999 183.5 59.9999C183.5 60.2499 182.95 60.4999 182.3 60.4999C181.6 60.4999 180.9 60.6999 180.75 60.9999C180.6 61.2499 180 61.4999 179.45 61.4999C178.95 61.4999 178.5 61.6999 178.5 61.9999C178.5 62.2499 177.95 62.4999 177.3 62.4999C176.6 62.4999 175.9 62.6999 175.75 62.9999C175.6 63.2499 175 63.4999 174.45 63.4999C173.95 63.4999 173.5 63.6999 173.5 63.9999C173.5 64.2499 173.15 64.4999 172.75 64.4999C172.35 64.4999 171.55 64.6999 171 64.9999C170.45 65.2499 169.55 65.6999 169 65.9999C168.45 66.2499 167.65 66.4999 167.25 66.4999C166.85 66.4999 166.5 66.6999 166.5 66.9999C166.5 67.2499 166.05 67.4999 165.5 67.4999C164.95 67.4999 164.5 67.6999 164.5 67.9999C164.5 68.2499 164.05 68.4999 163.5 68.4999C162.95 68.4999 162.5 68.6999 162.5 68.9999C162.5 69.2499 162.05 69.4999 161.5 69.4999C160.95 69.4999 160.5 69.6999 160.5 69.9999C160.5 70.2499 160.05 70.4999 159.5 70.4999C158.95 70.4999 158.5 70.6999 158.5 70.9999C158.5 71.2499 158.05 71.4999 157.5 71.4999C156.95 71.4999 156.5 71.6999 156.5 71.9999C156.5 72.2499 156.15 72.4999 155.75 72.4999C155.3 72.4999 154.5 72.9499 153.9 73.4999C153.3 74.0499 152.5 74.4999 152.15 74.4999C151.8 74.4999 151.5 74.6999 151.5 74.9999C151.5 75.2499 151.05 75.4999 150.5 75.4999C149.95 75.4999 149.5 75.6999 149.5 75.9999C149.5 76.2499 149.1 76.4999 148.6 76.4999C148.1 76.4999 147.4 76.9499 147 77.4999C146.6 78.0499 145.9 78.4999 145.4 78.4999C144.9 78.4999 144.5 78.6999 144.5 78.9999C144.5 79.2499 144.2 79.4999 143.85 79.4999C143.5 79.4999 142.75 79.8999 142.2 80.3499C141.7 80.8499 140.65 81.5499 139.9 81.9499C139.1 82.3499 138.5 82.8499 138.5 83.0999C138.5 83.2999 138.2 83.4999 137.85 83.4999C137.5 83.4999 136.7 83.9499 136.1 84.4999C135.5 85.0499 134.85 85.4999 134.6 85.4999C134.35 85.4999 133.45 86.1499 132.6 86.9999C131.7 87.7999 130.85 88.4999 130.6 88.4999C130.4 88.4999 129.2 89.3999 128 90.4999C126.8 91.5999 125.6 92.4999 125.35 92.4999C125.1 92.4999 124.05 93.3999 123 94.4999C121.95 95.5999 120.85 96.4999 120.55 96.4999C119.9 96.4999 99.1001 117.2 97.5001 119.5C96.8001 120.45 95.4001 122.1 94.4001 123.2C93.3501 124.25 92.5001 125.35 92.5001 125.6C92.5001 125.9 91.8501 126.75 91.0001 127.5C90.2001 128.25 89.5001 129.1 89.5001 129.4C89.5001 129.65 88.8501 130.55 88.0001 131.4C87.2001 132.3 86.5001 133.25 86.5001 133.55C86.5001 133.9 86.1001 134.5 85.6001 134.95C85.1501 135.4 84.4501 136.35 84.0501 137.1C83.6501 137.9 83.1501 138.5 82.9001 138.5C82.7001 138.5 82.5001 138.8 82.5001 139.15C82.5001 139.5 82.1001 140.25 81.6001 140.8C81.1501 141.3 80.4501 142.35 80.0501 143.1C79.6501 143.9 79.1501 144.5 78.9001 144.5C78.7001 144.5 78.5001 144.85 78.5001 145.25C78.5001 145.7 78.0501 146.5 77.5001 147.1C76.9501 147.7 76.5001 148.5 76.5001 148.85C76.5001 149.2 76.3001 149.5 76.0001 149.5C75.7501 149.5 75.5001 149.95 75.5001 150.5C75.5001 151.05 75.3001 151.5 75.0001 151.5C74.7501 151.5 74.5001 151.85 74.5001 152.25C74.5001 152.7 74.0501 153.5 73.5001 154.1C72.9501 154.7 72.5001 155.5 72.5001 155.85C72.5001 156.2 72.3001 156.5 72.0001 156.5C71.7501 156.5 71.5001 156.95 71.5001 157.5C71.5001 158.05 71.3001 158.5 71.0001 158.5C70.7501 158.5 70.5001 158.95 70.5001 159.5C70.5001 160.05 70.3001 160.5 70.0001 160.5C69.7501 160.5 69.5001 160.95 69.5001 161.5C69.5001 162.05 69.3001 162.5 69.0001 162.5C68.7501 162.5 68.5001 162.95 68.5001 163.5C68.5001 164.05 68.3001 164.5 68.0001 164.5C67.7501 164.5 67.5001 164.85 67.5001 165.25C67.5001 165.65 67.0501 166.75 66.5001 167.75C65.9501 168.75 65.5001 169.95 65.5001 170.5C65.5001 171.05 65.3001 171.5 65.0001 171.5C64.7501 171.5 64.5001 171.95 64.5001 172.5C64.5001 173.05 64.3001 173.5 64.0001 173.5C63.7501 173.5 63.5001 173.95 63.5001 174.45C63.5001 175 63.3001 175.6 63.0001 175.75C62.7501 175.9 62.5001 176.6 62.5001 177.3C62.5001 177.95 62.3001 178.5 62.0001 178.5C61.7501 178.5 61.5001 178.95 61.5001 179.45C61.5001 180 61.2501 180.6 61.0001 180.75C60.7001 180.9 60.5001 181.6 60.5001 182.3C60.5001 182.95 60.3001 183.5 60.0001 183.5C59.7501 183.5 59.5001 184.15 59.5001 185C59.5001 185.8 59.3001 186.5 59.0001 186.5C58.7501 186.5 58.5001 187.15 58.5001 188C58.5001 188.8 58.3001 189.5 58.0001 189.5C57.7501 189.5 57.5001 190.15 57.5001 191C57.5001 191.8 57.3001 192.5 57.0001 192.5C56.7501 192.5 56.5001 193.15 56.5001 194C56.5001 194.8 56.3001 195.5 56.0001 195.5C55.7501 195.5 55.5001 196.15 55.5001 196.95C55.5001 197.8 55.2501 198.6 55.0001 198.75C54.7001 198.9 54.5001 199.85 54.5001 200.8C54.5001 201.75 54.3001 202.5 54.0001 202.5C53.7501 202.5 53.5001 203.4 53.5001 204.5C53.5001 205.6 53.3001 206.5 53.0001 206.5C52.7501 206.5 52.5001 207.4 52.5001 208.45C52.5001 209.55 52.3001 210.6 52.0001 210.75C51.7501 210.9 51.5001 212.05 51.5001 213.25C51.5001 214.45 51.3001 215.6 51.0001 215.75C50.7501 215.9 50.5001 217.15 50.5001 218.5C50.5001 219.85 50.3001 221.1 50.0001 221.25C49.7501 221.4 49.5001 222.9 49.5001 224.5C49.5001 226.1 49.2501 227.6 49.0001 227.75C48.7001 227.9 48.5001 229.8 48.5001 231.95C48.5001 234.05 48.2501 236.05 48.0001 236.3C47.3001 237 47.3001 277.2 48.0001 277.4C48.3001 277.5 48.5001 279.3 48.5001 281.5C48.5001 283.65 48.7501 285.6 49.0001 285.75C49.3001 285.9 49.5001 287.5 49.5001 289.3C49.5001 291.1 49.7001 292.5 50.0001 292.5C50.3001 292.5 50.5001 293.6 50.5001 295C50.5001 296.35 50.7501 297.5 51.0001 297.5C51.3001 297.5 51.5001 298.6 51.5001 300C51.5001 301.35 51.7501 302.5 52.0001 302.5C52.3001 302.5 52.5001 303.4 52.5001 304.5C52.5001 305.6 52.7501 306.5 53.0001 306.5C53.3001 306.5 53.5001 307.4 53.5001 308.5C53.5001 309.6 53.7501 310.5 54.0001 310.5C54.3001 310.5 54.5001 311.25 54.5001 312.2C54.5001 313.15 54.7501 314.1 55.0001 314.25C55.3001 314.4 55.5001 315.2 55.5001 316.05C55.5001 316.85 55.7501 317.5 56.0001 317.5C56.3001 317.5 56.5001 318.15 56.5001 319C56.5001 319.8 56.7501 320.5 57.0001 320.5C57.3001 320.5 57.5001 321.15 57.5001 322C57.5001 322.8 57.7501 323.5 58.0001 323.5C58.3001 323.5 58.5001 324.15 58.5001 325C58.5001 325.8 58.7501 326.5 59.0001 326.5C59.3001 326.5 59.5001 327.15 59.5001 328C59.5001 328.8 59.7501 329.5 60.0001 329.5C60.3001 329.5 60.5001 329.95 60.5001 330.45C60.5001 331 60.7501 331.6 61.0001 331.75C61.3001 331.9 61.5001 332.6 61.5001 333.3C61.5001 333.95 61.7501 334.5 62.0001 334.5C62.3001 334.5 62.5001 334.95 62.5001 335.5C62.5001 336.05 62.7501 336.5 63.0001 336.5C63.3001 336.5 63.5001 337.05 63.5001 337.7C63.5001 338.4 63.7501 339.1 64.0001 339.25C64.2501 339.4 64.5001 340 64.5001 340.55C64.5001 341.05 64.7501 341.5 65.0001 341.5C65.3001 341.5 65.5001 341.95 65.5001 342.5C65.5001 343.05 65.7501 343.5 66.0001 343.5C66.3001 343.5 66.5001 343.95 66.5001 344.5C66.5001 345.05 66.7501 345.5 67.0001 345.5C67.3001 345.5 67.5001 345.95 67.5001 346.5C67.5001 347.05 67.7501 347.5 68.0001 347.5C68.3001 347.5 68.5001 347.95 68.5001 348.5C68.5001 349.05 68.7501 349.5 69.0001 349.5C69.3001 349.5 69.5001 349.95 69.5001 350.5C69.5001 351.05 69.7501 351.5 70.0001 351.5C70.3001 351.5 70.5001 351.95 70.5001 352.5C70.5001 353.05 70.7501 353.5 71.0001 353.5C71.3001 353.5 71.5001 353.95 71.5001 354.5C71.5001 355.05 71.7501 355.5 72.0001 355.5C72.3001 355.5 72.5001 355.95 72.5001 356.5C72.5001 357.05 72.7001 357.5 72.9501 357.5C73.2001 357.5 73.5001 357.9 73.6501 358.35C74.0501 359.55 75.6501 362.2 76.1501 362.4C76.3501 362.5 76.5001 362.9 76.5001 363.3C76.5001 363.7 76.9501 364.5 77.5001 365.1C78.0501 365.7 78.5001 366.5 78.5001 366.85C78.5001 367.2 78.7501 367.5 79.0001 367.5C79.3001 367.5 79.5001 367.8 79.5001 368.15C79.5001 368.5 79.9001 369.25 80.4001 369.8C80.8501 370.3 81.5501 371.35 81.9501 372.1C82.3501 372.9 82.8501 373.5 83.1001 373.5C83.3001 373.5 83.5001 373.8 83.5001 374.2C83.5001 374.55 84.1501 375.55 85.0001 376.4C85.8001 377.3 86.5001 378.2 86.5001 378.5C86.5001 378.8 87.1501 379.7 88.0001 380.6C88.8001 381.45 89.5001 382.35 89.5001 382.55C89.5001 382.8 90.4001 383.95 91.5001 385.05C92.6001 386.2 93.5001 387.3 93.5001 387.55C93.5001 387.8 94.6001 389.15 96.0001 390.55C97.4001 391.95 98.5001 393.3 98.5001 393.55C98.5001 394.2 118.9 414.5 119.5 414.5C119.8 414.5 121.15 415.65 122.55 417C123.95 418.4 125.35 419.5 125.6 419.5C125.85 419.5 126.75 420.15 127.5 421C128.25 421.8 129.1 422.5 129.4 422.5C129.65 422.5 130.55 423.15 131.4 424C132.3 424.8 133.2 425.5 133.5 425.5C133.8 425.5 134.7 426.15 135.6 427C136.45 427.8 137.45 428.5 137.8 428.5C138.2 428.5 138.5 428.7 138.5 428.9C138.5 429.15 139.1 429.65 139.9 430.05C140.65 430.45 141.7 431.15 142.2 431.65C142.75 432.1 143.5 432.5 143.85 432.5C144.2 432.5 144.5 432.7 144.5 433C144.5 433.25 144.8 433.5 145.15 433.5C145.5 433.5 146.3 433.95 146.9 434.5C147.5 435.05 148.3 435.5 148.75 435.5C149.15 435.5 149.5 435.7 149.5 436C149.5 436.25 149.8 436.5 150.15 436.5C150.5 436.5 151.3 436.95 151.9 437.5C152.5 438.05 153.3 438.5 153.75 438.5C154.15 438.5 154.5 438.7 154.5 439C154.5 439.25 154.95 439.5 155.5 439.5C156.05 439.5 156.5 439.7 156.5 440C156.5 440.25 156.95 440.5 157.45 440.5C158 440.5 158.5 440.65 158.6 440.85C158.8 441.4 162.95 443.5 163.8 443.5C164.2 443.5 164.5 443.7 164.5 444C164.5 444.25 164.95 444.5 165.5 444.5C166.05 444.5 166.5 444.7 166.5 445C166.5 445.25 166.95 445.5 167.5 445.5C168.05 445.5 168.5 445.7 168.5 446C168.5 446.25 168.95 446.5 169.5 446.5C170.05 446.5 170.5 446.7 170.5 447C170.5 447.25 170.95 447.5 171.5 447.5C172.05 447.5 172.5 447.7 172.5 448C172.5 448.25 173.05 448.5 173.7 448.5C174.4 448.5 175.1 448.7 175.25 449C175.4 449.25 176 449.5 176.55 449.5C177.05 449.5 177.5 449.7 177.5 450C177.5 450.25 178.05 450.5 178.7 450.5C179.4 450.5 180.1 450.7 180.25 451C180.4 451.25 181 451.5 181.55 451.5C182.05 451.5 182.5 451.7 182.5 452C182.5 452.25 183.2 452.5 184 452.5C184.85 452.5 185.5 452.7 185.5 453C185.5 453.25 186.2 453.5 187 453.5C187.85 453.5 188.5 453.7 188.5 454C188.5 454.25 189.2 454.5 190 454.5C190.85 454.5 191.5 454.7 191.5 455C191.5 455.25 192.2 455.5 193 455.5C193.85 455.5 194.5 455.7 194.5 456C194.5 456.25 195.15 456.5 195.95 456.5C196.8 456.5 197.6 456.75 197.75 457C197.9 457.3 198.85 457.5 199.8 457.5C200.75 457.5 201.5 457.7 201.5 458C201.5 458.25 202.4 458.5 203.5 458.5C204.6 458.5 205.5 458.7 205.5 459C205.5 459.25 206.4 459.5 207.45 459.5C208.55 459.5 209.6 459.75 209.75 460C209.9 460.3 211.05 460.5 212.3 460.5C213.5 460.5 214.5 460.7 214.5 461C214.5 461.25 215.6 461.5 216.95 461.5C218.35 461.5 219.6 461.75 219.75 462C219.9 462.3 221.5 462.5 223.3 462.5C225.1 462.5 226.5 462.7 226.5 463C226.5 463.3 228.25 463.5 230.7 463.5C233.05 463.5 235.1 463.7 235.25 464C235.65 464.7 275.5 464.7 275.5 464C275.5 463.7 277.25 463.5 279.7 463.5C282.05 463.5 284.1 463.3 284.25 463C284.4 462.75 285.9 462.5 287.5 462.5C289.1 462.5 290.6 462.25 290.75 462C290.9 461.7 292.3 461.5 293.8 461.5C295.3 461.5 296.5 461.25 296.5 461C296.5 460.7 297.5 460.5 298.7 460.5C299.95 460.5 301.1 460.25 301.25 460C301.4 459.7 302.45 459.5 303.55 459.5C304.6 459.5 305.5 459.25 305.5 459C305.5 458.7 306.4 458.5 307.5 458.5C308.6 458.5 309.5 458.25 309.5 458C309.5 457.7 310.25 457.5 311.2 457.5C312.15 457.5 313.1 457.25 313.25 457C313.4 456.7 314.2 456.5 315.05 456.5C315.85 456.5 316.5 456.25 316.5 456C316.5 455.7 317.15 455.5 317.95 455.5C318.8 455.5 319.6 455.25 319.75 455C319.9 454.7 320.6 454.5 321.3 454.5C321.95 454.5 322.95 454.25 323.5 454C324.05 453.7 324.95 453.3 325.5 453C326.05 452.75 326.95 452.5 327.5 452.5C328.05 452.5 328.5 452.25 328.5 452C328.5 451.7 329.2 451.5 330 451.5C330.85 451.5 331.5 451.25 331.5 451C331.5 450.7 331.95 450.5 332.45 450.5C333 450.5 333.6 450.3 333.75 450C333.9 449.75 334.6 449.5 335.3 449.5C335.95 449.5 336.5 449.25 336.5 449C336.5 448.7 336.95 448.5 337.5 448.5C338.05 448.5 338.5 448.25 338.5 448C338.5 447.7 339.05 447.5 339.7 447.5C340.4 447.5 341.1 447.25 341.25 447C341.4 446.7 342 446.5 342.55 446.5C343.05 446.5 343.5 446.25 343.5 446C343.5 445.7 343.95 445.5 344.5 445.5C345.05 445.5 345.5 445.25 345.5 445C345.5 444.7 345.95 444.5 346.5 444.5C347.05 444.5 347.5 444.25 347.5 444C347.5 443.7 347.95 443.5 348.5 443.5C349.05 443.5 349.5 443.25 349.5 443C349.5 442.7 349.95 442.5 350.5 442.5C351.05 442.5 351.5 442.25 351.5 442C351.5 441.7 351.95 441.5 352.5 441.5C353.05 441.5 353.5 441.25 353.5 441C353.5 440.7 353.95 440.5 354.5 440.5C355.05 440.5 355.5 440.25 355.5 440C355.5 439.7 355.95 439.5 356.5 439.5C357.05 439.5 357.5 439.25 357.5 439C357.5 438.7 357.8 438.5 358.15 438.5C358.5 438.5 359.3 438.05 359.9 437.5C360.5 436.95 361.3 436.5 361.75 436.5C362.15 436.5 362.5 436.25 362.5 436C362.5 435.7 362.85 435.5 363.25 435.5C363.7 435.5 364.5 435.05 365.1 434.5C365.7 433.95 366.5 433.5 366.85 433.5C367.2 433.5 367.5 433.25 367.5 433C367.5 432.7 367.8 432.5 368.15 432.5C368.5 432.5 369.25 432.1 369.8 431.65C370.3 431.15 371.35 430.45 372.15 430.05C372.9 429.65 373.5 429.15 373.5 428.9C373.5 428.7 373.8 428.5 374.15 428.5C374.45 428.5 375.55 427.8 376.5 427C377.45 426.2 378.5 425.5 378.75 425.5C379.05 425.5 379.6 425.05 380 424.5C380.4 423.95 380.95 423.5 381.25 423.5C381.55 423.5 382.8 422.6 384 421.5C385.2 420.4 386.4 419.5 386.6 419.5C386.8 419.5 388.15 418.4 389.55 417C390.95 415.65 392.3 414.5 392.55 414.5C393.2 414.5 414.5 393.1 414.5 392.5C414.5 392.2 415.65 390.85 417 389.45C418.4 388.05 419.5 386.7 419.5 386.45C419.5 386.2 420.2 385.3 421 384.4C421.85 383.55 422.5 382.65 422.5 382.4C422.5 382.2 423.2 381.3 424 380.4C424.85 379.55 425.5 378.6 425.5 378.3C425.5 378 425.95 377.4 426.5 377C427.05 376.6 427.5 375.95 427.5 375.5C427.5 375.05 427.95 374.4 428.5 374C429.05 373.6 429.5 372.95 429.5 372.5C429.5 372.05 429.95 371.4 430.5 371C431.05 370.6 431.5 369.95 431.5 369.5C431.5 369.05 431.95 368.4 432.5 368C433.05 367.6 433.5 366.9 433.5 366.4C433.5 365.9 433.75 365.5 434 365.5C434.3 365.5 434.5 365.2 434.5 364.85C434.5 364.5 434.95 363.7 435.5 363.1C436.05 362.5 436.5 361.7 436.5 361.25C436.5 360.85 436.75 360.5 437 360.5C437.3 360.5 437.5 360.05 437.5 359.55C437.5 359 437.65 358.5 437.9 358.4C438.35 358.2 439.95 355.55 440.35 354.35C440.5 353.9 440.8 353.5 441.05 353.5C441.3 353.5 441.5 353.05 441.5 352.5C441.5 351.95 441.75 351.5 442 351.5C442.3 351.5 442.5 351.05 442.5 350.5C442.5 349.95 442.75 349.5 443 349.5C443.3 349.5 443.5 349.05 443.5 348.5C443.5 347.95 443.75 347.5 444 347.5C444.3 347.5 444.5 347.15 444.5 346.75C444.5 346.35 444.75 345.55 445 345C445.3 344.45 445.75 343.55 446 343C446.3 342.45 446.5 341.65 446.5 341.25C446.5 340.85 446.75 340.5 447 340.5C447.3 340.5 447.5 340.05 447.5 339.5C447.5 338.95 447.75 338.5 448 338.5C448.3 338.5 448.5 338.05 448.5 337.55C448.5 337 448.75 336.4 449 336.25C449.3 336.1 449.5 335.4 449.5 334.7C449.5 334.05 449.75 333.5 450 333.5C450.3 333.5 450.5 333.05 450.5 332.55C450.5 332 450.75 331.4 451 331.25C451.3 331.1 451.5 330.4 451.5 329.7C451.5 329.05 451.75 328.5 452 328.5C452.3 328.5 452.5 327.8 452.5 327C452.5 326.15 452.75 325.5 453 325.5C453.3 325.5 453.5 324.8 453.5 324C453.5 323.15 453.75 322.5 454 322.5C454.3 322.5 454.5 321.8 454.5 321C454.5 320.15 454.75 319.5 455 319.5C455.3 319.5 455.5 318.8 455.5 318C455.5 317.15 455.75 316.5 456 316.5C456.3 316.5 456.5 315.75 456.5 314.8C456.5 313.85 456.75 312.9 457 312.75C457.3 312.6 457.5 311.8 457.5 310.95C457.5 310.15 457.75 309.5 458 309.5C458.3 309.5 458.5 308.6 458.5 307.5C458.5 306.4 458.75 305.5 459 305.5C459.3 305.5 459.5 304.6 459.5 303.55C459.5 302.45 459.75 301.4 460 301.25C460.3 301.1 460.5 299.95 460.5 298.75C460.5 297.55 460.75 296.4 461 296.25C461.3 296.1 461.5 294.85 461.5 293.5C461.5 292.15 461.7 290.9 462 290.75C462.25 290.6 462.5 289.1 462.5 287.5C462.5 285.9 462.75 284.4 463 284.25C463.3 284.1 463.5 282.05 463.5 279.7C463.5 277.25 463.7 275.5 464 275.5C464.3 275.5 464.5 268.75 464.5 256.3C464.5 244 464.3 236.95 464 236.75C463.75 236.6 463.5 234.55 463.5 232.25C463.5 229.95 463.3 227.9 463 227.75C462.75 227.6 462.5 226.1 462.5 224.45C462.5 222.8 462.3 221.5 462 221.5C461.75 221.5 461.5 220.3 461.5 218.8C461.5 217.3 461.3 215.9 461 215.75C460.75 215.6 460.5 214.55 460.5 213.5C460.5 212.45 460.3 211.4 460 211.25C459.75 211.1 459.5 210.05 459.5 209C459.5 207.95 459.3 206.9 459 206.75C458.75 206.6 458.5 205.7 458.5 204.75C458.5 203.8 458.3 202.9 458 202.75C457.75 202.6 457.5 201.8 457.5 201C457.5 200.2 457.3 199.4 457 199.25C456.75 199.1 456.5 198.3 456.5 197.5C456.5 196.7 456.3 195.9 456 195.75C455.75 195.6 455.5 194.8 455.5 193.95C455.5 193.15 455.3 192.5 455 192.5C454.75 192.5 454.5 191.8 454.5 191C454.5 190.15 454.3 189.5 454 189.5C453.75 189.5 453.5 188.8 453.5 188C453.5 187.15 453.3 186.5 453 186.5C452.75 186.5 452.5 185.95 452.5 185.3C452.5 184.6 452.3 183.9 452 183.75C451.75 183.6 451.5 183 451.5 182.45C451.5 181.95 451.3 181.5 451 181.5C450.75 181.5 450.5 180.8 450.5 180C450.5 179.15 450.3 178.5 450 178.5C449.75 178.5 449.5 178.05 449.5 177.5C449.5 176.95 449.3 176.5 449 176.5C448.75 176.5 448.5 175.95 448.5 175.3C448.5 174.6 448.3 173.9 448 173.75C447.75 173.6 447.5 173 447.5 172.45C447.5 171.95 447.3 171.5 447 171.5C446.75 171.5 446.5 171.05 446.5 170.5C446.5 169.95 446.3 169.5 446 169.5C445.75 169.5 445.5 169.05 445.5 168.5C445.5 167.95 445.3 167.5 445 167.5C444.75 167.5 444.5 167.2 444.5 166.85C444.5 166.1 440.4 157.8 439.9 157.6C439.65 157.5 439.5 157 439.5 156.45C439.5 155.95 439.3 155.5 439 155.5C438.75 155.5 438.5 155.05 438.5 154.5C438.5 153.95 438.3 153.5 438 153.5C437.75 153.5 437.5 153.15 437.5 152.75C437.5 152.3 437.05 151.5 436.5 150.9C435.95 150.3 435.5 149.5 435.5 149.15C435.5 148.8 435.3 148.5 435 148.5C434.75 148.5 434.5 148.1 434.5 147.6C434.5 147.1 434.05 146.4 433.5 146C432.95 145.6 432.5 145 432.5 144.6C432.5 144.25 432.05 143.5 431.5 142.9C430.95 142.3 430.5 141.5 430.5 141.15C430.5 140.8 430.3 140.5 430 140.5C429.75 140.5 429.5 140.2 429.5 139.85C429.5 139.55 428.8 138.45 428 137.5C427.2 136.55 426.5 135.5 426.5 135.25C426.5 134.95 426.05 134.4 425.5 134C424.95 133.6 424.5 133 424.5 132.7C424.5 132.4 423.85 131.45 423 130.6C422.2 129.7 421.5 128.8 421.5 128.6C421.5 128.35 420.9 127.5 420.1 126.7C419.35 125.9 418.2 124.45 417.5 123.5C416.85 122.55 415.45 120.9 414.4 119.9C413.35 118.9 412.5 117.85 412.5 117.6C412.5 116.9 396.7 101 394.5 99.4999C393.55 98.8499 391.95 97.4999 391 96.4999C390.05 95.4999 388.45 94.1499 387.5 93.4999C386.55 92.7999 385.1 91.6499 384.3 90.8999C383.5 90.0999 382.65 89.4999 382.4 89.4999C382.2 89.4999 381.3 88.7999 380.4 87.9999C379.55 87.1499 378.65 86.4999 378.35 86.4999C378.1 86.4999 377.5 86.0999 377.05 85.5999C376.6 85.1499 375.65 84.4499 374.9 84.0499C374.1 83.6499 373.5 83.1499 373.5 82.8999C373.5 82.6999 373.2 82.4999 372.85 82.4999C372.5 82.4999 371.75 82.0999 371.2 81.5999C370.7 81.1499 369.65 80.4499 368.9 80.0499C368.1 79.6499 367.5 79.1499 367.5 78.8999C367.5 78.6999 367.15 78.4999 366.75 78.4999C366.3 78.4999 365.5 78.0499 364.9 77.4999C364.3 76.9499 363.5 76.4999 363.15 76.4999C362.8 76.4999 362.5 76.2499 362.5 75.9999C362.5 75.6999 362.15 75.4999 361.75 75.4999C361.3 75.4999 360.5 75.0499 359.9 74.4999C359.3 73.9499 358.5 73.4999 358.15 73.4999C357.8 73.4999 357.5 73.2499 357.5 72.9999C357.5 72.6999 357.05 72.4999 356.5 72.4999C355.95 72.4999 355.5 72.2499 355.5 71.9999C355.5 71.6999 355.05 71.4999 354.5 71.4999C353.95 71.4999 353.5 71.2499 353.5 70.9999C353.5 70.6999 353.05 70.4999 352.5 70.4999C351.95 70.4999 351.5 70.2499 351.5 69.9999C351.5 69.6999 351.05 69.4999 350.5 69.4999C349.95 69.4999 349.5 69.2499 349.5 68.9999C349.5 68.6999 349.05 68.4999 348.5 68.4999C347.95 68.4999 347.5 68.2499 347.5 67.9999C347.5 67.6999 347.05 67.4999 346.5 67.4999C345.95 67.4999 345.5 67.2499 345.5 66.9999C345.5 66.6999 345.05 66.4999 344.5 66.4999C343.95 66.4999 343.5 66.2499 343.5 65.9999C343.5 65.6999 343.15 65.4999 342.75 65.4999C342.35 65.4999 341.5 65.2499 340.85 64.8999C338.5 63.6999 338 63.4999 337.25 63.4999C336.85 63.4999 336.5 63.2499 336.5 62.9999C336.5 62.6999 336.05 62.4999 335.55 62.4999C335 62.4999 334.4 62.2499 334.25 61.9999C334.1 61.6999 333.4 61.4999 332.7 61.4999C332.05 61.4999 331.5 61.2499 331.5 60.9999C331.5 60.6999 330.85 60.4999 330 60.4999C329.2 60.4999 328.5 60.2499 328.5 59.9999C328.5 59.6999 328.05 59.4999 327.5 59.4999C326.95 59.4999 326.05 59.2499 325.5 58.9999C324.95 58.6999 324.05 58.2499 323.5 57.9999C322.95 57.6999 321.95 57.4999 321.3 57.4999C320.6 57.4999 319.9 57.2499 319.75 56.9999C319.6 56.6999 318.8 56.4999 317.95 56.4999C317.15 56.4999 316.5 56.2499 316.5 55.9999C316.5 55.6999 315.85 55.4999 315.05 55.4999C314.2 55.4999 313.4 55.2499 313.25 54.9999C313.1 54.6999 312.15 54.4999 311.2 54.4999C310.25 54.4999 309.5 54.2499 309.5 53.9999C309.5 53.6999 308.6 53.4999 307.5 53.4999C306.4 53.4999 305.5 53.2499 305.5 52.9999C305.5 52.6999 304.5 52.4999 303.3 52.4999C302.05 52.4999 300.9 52.2499 300.75 51.9999C300.6 51.6999 299.55 51.4999 298.5 51.4999C297.45 51.4999 296.4 51.2499 296.25 50.9999C296.1 50.6999 294.75 50.4999 293.25 50.4999C291.75 50.4999 290.4 50.2499 290.25 49.9999C290.1 49.6999 288.5 49.4999 286.75 49.4999C285 49.4999 283.4 49.2499 283.25 48.9999C283.1 48.6999 280.85 48.4999 278.2 48.4999C275.4 48.4999 273.5 48.2999 273.5 47.9999C273.5 47.6999 267.45 47.4999 256.3 47.4999C245.35 47.4999 238.95 47.6999 238.75 47.9999ZM271.25 81.9999C271.4 82.2499 273.45 82.4999 275.75 82.4999C278.05 82.4999 280.1 82.6999 280.25 82.9999C280.4 83.2499 281.9 83.4999 283.5 83.4999C285.1 83.4999 286.6 83.6999 286.75 83.9999C286.9 84.2499 288.05 84.4999 289.3 84.4999C290.5 84.4999 291.5 84.6999 291.5 84.9999C291.5 85.2499 292.65 85.4999 294 85.4999C295.4 85.4999 296.5 85.6999 296.5 85.9999C296.5 86.2499 297.25 86.4999 298.2 86.4999C299.15 86.4999 300.1 86.6999 300.25 86.9999C300.4 87.2499 301.2 87.4999 302 87.4999C302.8 87.4999 303.6 87.6999 303.75 87.9999C303.9 88.2499 304.85 88.4999 305.8 88.4999C306.75 88.4999 307.5 88.6999 307.5 88.9999C307.5 89.2499 308.2 89.4999 309 89.4999C309.85 89.4999 310.5 89.6999 310.5 89.9999C310.5 90.2499 311.2 90.4999 312 90.4999C312.85 90.4999 313.5 90.6999 313.5 90.9999C313.5 91.2499 314.2 91.4999 315 91.4999C315.85 91.4999 316.5 91.6999 316.5 91.9999C316.5 92.2499 316.95 92.4999 317.45 92.4999C318 92.4999 318.6 92.6999 318.75 92.9999C318.9 93.2499 319.6 93.4999 320.3 93.4999C320.95 93.4999 321.5 93.6999 321.5 93.9999C321.5 94.2499 321.95 94.4999 322.45 94.4999C323 94.4999 323.6 94.6999 323.75 94.9999C323.9 95.2499 324.6 95.4999 325.3 95.4999C325.95 95.4999 326.5 95.6999 326.5 95.9999C326.5 96.2499 326.95 96.4999 327.5 96.4999C328.05 96.4999 328.5 96.6999 328.5 96.9999C328.5 97.2499 328.95 97.4999 329.5 97.4999C330.05 97.4999 330.5 97.6999 330.5 97.9999C330.5 98.2499 330.95 98.4999 331.5 98.4999C332.05 98.4999 332.5 98.6999 332.5 98.9999C332.5 99.2499 332.95 99.4999 333.5 99.4999C334.05 99.4999 334.5 99.6999 334.5 99.9999C334.5 100.25 334.95 100.5 335.5 100.5C336.05 100.5 336.5 100.7 336.5 101C336.5 101.25 336.95 101.5 337.5 101.5C338.05 101.5 338.5 101.7 338.5 102C338.5 102.25 338.95 102.5 339.5 102.5C340.05 102.5 340.5 102.7 340.5 103C340.5 103.25 340.85 103.5 341.25 103.5C341.7 103.5 342.5 103.95 343.1 104.5C343.7 105.05 344.5 105.5 344.85 105.5C345.2 105.5 345.5 105.7 345.5 106C345.5 106.25 345.9 106.5 346.4 106.5C346.9 106.5 347.6 106.95 348 107.5C348.4 108.05 349.1 108.5 349.6 108.5C350.1 108.5 350.5 108.7 350.5 108.9C350.5 109.15 351.1 109.65 351.9 110.05C352.65 110.45 353.6 111.15 354.05 111.6C354.5 112.1 355.1 112.5 355.45 112.5C355.75 112.5 356.7 113.15 357.6 114C358.45 114.8 359.35 115.5 359.6 115.5C359.8 115.5 360.7 116.15 361.6 117C362.45 117.8 363.35 118.5 363.6 118.5C363.9 118.5 364.7 119.15 365.4 119.9C366.15 120.65 367.55 121.85 368.5 122.5C370.75 124.1 386.9 140.25 388.5 142.5C389.15 143.45 390.35 144.85 391.1 145.6C391.85 146.3 392.5 147.1 392.5 147.35C392.5 147.6 393.4 148.8 394.5 150C395.6 151.2 396.5 152.4 396.5 152.65C396.5 152.95 396.9 153.5 397.4 153.95C397.85 154.4 398.55 155.35 398.95 156.1C399.35 156.9 399.85 157.5 400.1 157.5C400.3 157.5 400.5 157.8 400.5 158.15C400.5 158.5 400.9 159.25 401.4 159.8C401.85 160.3 402.55 161.35 402.95 162.1C403.35 162.9 403.85 163.5 404.1 163.5C404.3 163.5 404.5 163.85 404.5 164.25C404.5 164.7 404.95 165.5 405.5 166.1C406.05 166.7 406.5 167.5 406.5 167.85C406.5 168.2 406.75 168.5 407 168.5C407.3 168.5 407.5 168.95 407.5 169.5C407.5 170.05 407.75 170.5 408 170.5C408.3 170.5 408.5 170.95 408.5 171.45C408.5 172 408.65 172.5 408.9 172.6C409.4 172.8 410.65 175.05 412.8 179.5C413.8 181.55 414.8 183.65 415.05 184.1C415.3 184.6 415.5 185.35 415.5 185.75C415.5 186.15 415.75 186.5 416 186.5C416.3 186.5 416.5 186.95 416.5 187.5C416.5 188.05 416.75 188.5 417 188.5C417.3 188.5 417.5 189.05 417.5 189.7C417.5 190.4 417.75 191.1 418 191.25C418.3 191.4 418.5 192 418.5 192.55C418.5 193.05 418.75 193.5 419 193.5C419.3 193.5 419.5 193.95 419.5 194.5C419.5 195.05 419.75 195.95 420 196.5C420.3 197.05 420.75 197.95 421 198.5C421.3 199.05 421.5 199.95 421.5 200.45C421.5 201 421.75 201.6 422 201.75C422.3 201.9 422.5 202.6 422.5 203.25C422.5 203.9 422.75 204.6 423 204.75C423.3 204.9 423.5 205.7 423.5 206.5C423.5 207.3 423.75 208.1 424 208.25C424.3 208.4 424.5 209.2 424.5 210C424.5 210.8 424.75 211.6 425 211.75C425.3 211.9 425.5 212.85 425.5 213.8C425.5 214.75 425.75 215.5 426 215.5C426.3 215.5 426.5 216.5 426.5 217.7C426.5 218.95 426.75 220.1 427 220.25C427.3 220.4 427.5 221.55 427.5 222.75C427.5 223.95 427.75 225.1 428 225.25C428.3 225.4 428.5 226.65 428.5 228C428.5 229.35 428.75 230.6 429 230.75C429.3 230.9 429.5 232.75 429.5 234.8C429.5 236.95 429.7 238.5 430 238.5C430.3 238.5 430.5 244.55 430.5 255.7C430.5 266.65 430.3 273.05 430 273.25C429.75 273.4 429.5 275.1 429.5 277C429.5 278.9 429.25 280.6 429 280.75C428.75 280.9 428.5 282.25 428.5 283.75C428.5 285.25 428.3 286.6 428 286.75C427.75 286.9 427.5 288.05 427.5 289.25C427.5 290.45 427.3 291.6 427 291.75C426.75 291.9 426.5 293.05 426.5 294.3C426.5 295.5 426.3 296.5 426 296.5C425.75 296.5 425.5 297.25 425.5 298.2C425.5 299.15 425.3 300.1 425 300.25C424.75 300.4 424.5 301.2 424.5 302C424.5 302.8 424.25 303.6 424 303.75C423.75 303.9 423.5 304.7 423.5 305.5C423.5 306.3 423.3 307.1 423 307.25C422.75 307.4 422.5 308.1 422.5 308.75C422.5 309.4 422.3 310.1 422 310.25C421.75 310.4 421.5 311.2 421.5 312.05C421.5 312.85 421.3 313.5 421 313.5C420.75 313.5 420.5 313.95 420.5 314.45C420.5 315 420.3 315.6 420 315.75C419.75 315.9 419.5 316.6 419.5 317.3C419.5 317.95 419.3 318.5 419 318.5C418.75 318.5 418.5 319.05 418.5 319.7C418.5 320.4 418.3 321.1 418 321.25C417.75 321.4 417.5 322 417.5 322.55C417.5 323.05 417.3 323.5 417 323.5C416.75 323.5 416.5 323.85 416.5 324.25C416.5 324.65 416.3 325.45 416 326C415.75 326.55 415.3 327.45 415 328C414.75 328.55 414.5 329.35 414.5 329.75C414.5 330.15 414.3 330.5 414 330.5C413.75 330.5 413.5 330.95 413.5 331.5C413.5 332.05 413.3 332.5 413 332.5C412.75 332.5 412.5 332.95 412.5 333.5C412.5 334.05 412.3 334.5 412 334.5C411.75 334.5 411.5 334.95 411.5 335.5C411.5 336.05 411.3 336.5 411 336.5C410.75 336.5 410.5 336.95 410.5 337.5C410.5 338.05 410.3 338.5 410.05 338.5C409.8 338.5 409.5 338.9 409.35 339.35C408.95 340.55 407.35 343.2 406.9 343.4C406.65 343.5 406.5 343.9 406.5 344.3C406.5 344.7 406.05 345.5 405.5 346.1C404.95 346.7 404.5 347.5 404.5 347.85C404.5 348.2 404.3 348.5 404 348.5C403.75 348.5 403.5 348.9 403.5 349.4C403.5 349.9 403.05 350.6 402.5 351C401.95 351.4 401.5 352.05 401.5 352.5C401.5 352.95 401.05 353.6 400.5 354C399.95 354.4 399.5 354.95 399.5 355.25C399.5 355.5 398.8 356.55 398 357.5C397.2 358.45 396.5 359.4 396.5 359.65C396.5 359.85 395.85 360.7 395 361.6C394.2 362.45 393.5 363.35 393.5 363.6C393.5 363.9 392.85 364.7 392.1 365.4C391.35 366.15 390.2 367.5 389.55 368.4C388.25 370.25 380.85 378.2 377.55 381.25C376.4 382.35 373.7 384.9 371.65 386.85C369.6 388.85 367.7 390.5 367.4 390.5C367.15 390.5 366.05 391.4 365 392.5C363.95 393.6 362.85 394.5 362.6 394.5C362.35 394.5 361.45 395.15 360.6 396C359.7 396.8 358.7 397.5 358.35 397.5C358 397.5 357.4 397.95 357 398.5C356.6 399.05 356.05 399.5 355.75 399.5C355.5 399.5 354.45 400.2 353.5 401C352.55 401.8 351.45 402.5 351.15 402.5C350.8 402.5 350.5 402.7 350.5 403C350.5 403.25 350.2 403.5 349.85 403.5C349.5 403.5 348.7 403.95 348.1 404.5C347.5 405.05 346.7 405.5 346.25 405.5C345.85 405.5 345.5 405.7 345.5 406C345.5 406.25 345.2 406.5 344.85 406.5C344.5 406.5 343.7 406.95 343.1 407.5C342.5 408.05 341.7 408.5 341.25 408.5C340.85 408.5 340.5 408.7 340.5 409C340.5 409.25 340.05 409.5 339.5 409.5C338.95 409.5 338.5 409.7 338.5 410C338.5 410.25 338.05 410.5 337.5 410.5C336.95 410.5 336.5 410.7 336.5 411C336.5 411.25 336.05 411.5 335.5 411.5C334.95 411.5 334.5 411.7 334.5 412C334.5 412.25 334.05 412.5 333.5 412.5C332.95 412.5 332.5 412.7 332.5 413C332.5 413.25 332.05 413.5 331.5 413.5C330.95 413.5 330.5 413.7 330.5 414C330.5 414.25 330.05 414.5 329.5 414.5C328.95 414.5 328.5 414.7 328.5 415C328.5 415.25 328.05 415.5 327.5 415.5C326.95 415.5 326.5 415.7 326.5 416C326.5 416.25 325.95 416.5 325.3 416.5C324.6 416.5 323.9 416.75 323.75 417C323.6 417.3 323 417.5 322.45 417.5C321.95 417.5 321.5 417.7 321.5 418C321.5 418.25 320.95 418.5 320.3 418.5C319.6 418.5 318.9 418.75 318.75 419C318.6 419.3 318 419.5 317.45 419.5C316.95 419.5 316.5 419.7 316.5 420C316.5 420.25 315.85 420.5 315 420.5C314.2 420.5 313.5 420.7 313.5 421C313.5 421.25 312.85 421.5 312 421.5C311.2 421.5 310.5 421.7 310.5 422C310.5 422.25 309.85 422.5 309 422.5C308.2 422.5 307.5 422.7 307.5 423C307.5 423.25 306.85 423.5 306.05 423.5C305.2 423.5 304.4 423.7 304.25 424C304.1 424.25 303.15 424.5 302.2 424.5C301.25 424.5 300.5 424.7 300.5 425C300.5 425.25 299.6 425.5 298.5 425.5C297.4 425.5 296.5 425.7 296.5 426C296.5 426.25 295.6 426.5 294.55 426.5C293.45 426.5 292.4 426.75 292.25 427C292.1 427.25 290.95 427.5 289.75 427.5C288.55 427.5 287.4 427.7 287.25 428C287.1 428.25 285.75 428.5 284.25 428.5C282.75 428.5 281.4 428.75 281.25 429C281.1 429.25 279.3 429.5 277.25 429.5C275.2 429.5 273.4 429.7 273.25 430C272.85 430.7 237.65 430.7 237.25 430C237.1 429.75 235.25 429.5 233.2 429.5C231.05 429.5 229.5 429.3 229.5 429C229.5 428.7 228.3 428.5 226.8 428.5C225.3 428.5 223.9 428.25 223.75 428C223.6 427.7 222.45 427.5 221.25 427.5C220.05 427.5 218.9 427.25 218.75 427C218.6 426.7 217.55 426.5 216.45 426.5C215.4 426.5 214.5 426.25 214.5 426C214.5 425.7 213.6 425.5 212.5 425.5C211.4 425.5 210.5 425.25 210.5 425C210.5 424.7 209.85 424.5 209.05 424.5C208.2 424.5 207.4 424.25 207.25 424C207.1 423.7 206.3 423.5 205.5 423.5C204.7 423.5 203.9 423.3 203.75 423C203.6 422.75 202.8 422.5 201.95 422.5C201.15 422.5 200.5 422.25 200.5 422C200.5 421.7 200.05 421.5 199.5 421.5C198.95 421.5 198.05 421.25 197.5 421C196.95 420.7 196.05 420.25 195.5 420C194.95 419.75 194.05 419.5 193.5 419.5C192.95 419.5 192.5 419.25 192.5 419C192.5 418.7 192.05 418.5 191.55 418.5C191 418.5 190.4 418.25 190.25 418C190.1 417.7 189.4 417.5 188.7 417.5C188.05 417.5 187.5 417.25 187.5 417C187.5 416.7 187.05 416.5 186.5 416.5C185.95 416.5 185.5 416.25 185.5 416C185.5 415.7 185.05 415.5 184.5 415.5C183.95 415.5 183.5 415.25 183.5 415C183.5 414.7 183.2 414.5 182.9 414.5C182.1 414.5 173.8 410.4 173.6 409.9C173.5 409.65 173 409.5 172.45 409.5C171.95 409.5 171.5 409.25 171.5 409C171.5 408.7 171.05 408.5 170.5 408.5C169.95 408.5 169.5 408.25 169.5 408C169.5 407.7 169.2 407.5 168.85 407.5C168.5 407.5 167.7 407.05 167.1 406.5C166.5 405.95 165.7 405.5 165.25 405.5C164.85 405.5 164.5 405.3 164.5 405.1C164.5 404.85 163.9 404.35 163.15 403.95C162.35 403.55 161.3 402.85 160.8 402.35C160.25 401.9 159.5 401.5 159.15 401.5C158.8 401.5 158.5 401.3 158.5 401.1C158.5 400.85 157.9 400.35 157.15 399.95C156.35 399.55 155.4 398.85 154.95 398.4C154.5 397.9 153.9 397.5 153.65 397.5C153.35 397.5 152.45 396.8 151.6 396C150.7 395.15 149.8 394.5 149.55 394.5C149.3 394.5 148.2 393.6 147.05 392.5C145.95 391.4 144.75 390.5 144.5 390.5C143.85 390.5 122.5 369.3 122.5 368.65C122.5 368.4 121.35 366.95 120 365.5C118.6 364.05 117.5 362.65 117.5 362.4C117.5 362.2 116.85 361.3 116 360.4C115.2 359.55 114.5 358.65 114.5 358.35C114.5 358.1 114.1 357.5 113.6 357.05C113.15 356.6 112.45 355.65 112.05 354.85C111.65 354.1 111.15 353.5 110.9 353.5C110.7 353.5 110.5 353.2 110.5 352.85C110.5 352.5 110.1 351.75 109.65 351.2C109.15 350.7 108.45 349.65 108.05 348.85C107.65 348.1 107.15 347.5 106.9 347.5C106.7 347.5 106.5 347.05 106.5 346.5C106.5 345.95 106.3 345.5 106 345.5C105.75 345.5 105.5 345.2 105.5 344.85C105.5 344.5 105.05 343.7 104.5 343.1C103.95 342.5 103.5 341.7 103.5 341.25C103.5 340.85 103.3 340.5 103 340.5C102.75 340.5 102.5 340.05 102.5 339.55C102.5 339 102.35 338.5 102.1 338.4C101.6 338.2 97.5001 329.9 97.5001 329.1C97.5001 328.8 97.3001 328.5 97.0001 328.5C96.7501 328.5 96.5001 328.05 96.5001 327.5C96.5001 326.95 96.3001 326.5 96.0001 326.5C95.7501 326.5 95.5001 326.05 95.5001 325.5C95.5001 324.95 95.3001 324.5 95.0001 324.5C94.7501 324.5 94.5001 323.95 94.5001 323.3C94.5001 322.6 94.2501 321.9 94.0001 321.75C93.7001 321.6 93.5001 321 93.5001 320.45C93.5001 319.95 93.3001 319.5 93.0001 319.5C92.7501 319.5 92.5001 319.05 92.5001 318.5C92.5001 317.95 92.2501 317.05 92.0001 316.5C91.7501 315.95 91.3001 315.05 91.0001 314.5C90.7001 313.95 90.5001 313.05 90.5001 312.5C90.5001 311.95 90.3001 311.5 90.0001 311.5C89.7501 311.5 89.5001 310.8 89.5001 310C89.5001 309.15 89.3001 308.5 89.0001 308.5C88.7501 308.5 88.5001 307.75 88.5001 306.8C88.5001 305.85 88.3001 304.9 88.0001 304.75C87.7501 304.6 87.5001 303.8 87.5001 302.95C87.5001 302.15 87.3001 301.5 87.0001 301.5C86.7501 301.5 86.5001 300.6 86.5001 299.5C86.5001 298.4 86.3001 297.5 86.0001 297.5C85.7501 297.5 85.5001 296.6 85.5001 295.55C85.5001 294.45 85.3001 293.4 85.0001 293.25C84.7501 293.1 84.5001 291.95 84.5001 290.7C84.5001 289.5 84.3001 288.5 84.0001 288.5C83.7001 288.5 83.5001 287.15 83.5001 285.5C83.5001 283.85 83.3001 282.5 83.0001 282.5C82.7001 282.5 82.5001 280.95 82.5001 278.8C82.5001 276.75 82.3001 274.9 82.0001 274.75C81.7001 274.55 81.5001 271.5 81.5001 267.25C81.5001 263.15 81.2501 259.05 80.9001 257.75C80.4001 255.95 80.4001 255.25 80.9001 254.5C81.3001 253.85 81.5001 251.05 81.5001 246.05C81.5001 241.6 81.7001 238.45 82.0001 238.25C82.3001 238.1 82.5001 236.25 82.5001 234.2C82.5001 232.05 82.7001 230.5 83.0001 230.5C83.3001 230.5 83.5001 229.15 83.5001 227.5C83.5001 225.85 83.7001 224.5 84.0001 224.5C84.3001 224.5 84.5001 223.5 84.5001 222.3C84.5001 221.05 84.7501 219.9 85.0001 219.75C85.3001 219.6 85.5001 218.55 85.5001 217.45C85.5001 216.4 85.7501 215.5 86.0001 215.5C86.3001 215.5 86.5001 214.6 86.5001 213.5C86.5001 212.4 86.7501 211.5 87.0001 211.5C87.3001 211.5 87.5001 210.75 87.5001 209.8C87.5001 208.85 87.7501 207.9 88.0001 207.75C88.3001 207.6 88.5001 206.8 88.5001 205.95C88.5001 205.15 88.7501 204.5 89.0001 204.5C89.3001 204.5 89.5001 203.8 89.5001 203C89.5001 202.15 89.7501 201.5 90.0001 201.5C90.3001 201.5 90.5001 200.8 90.5001 200C90.5001 199.15 90.7501 198.5 91.0001 198.5C91.3001 198.5 91.5001 197.95 91.5001 197.3C91.5001 196.6 91.7501 195.9 92.0001 195.75C92.2501 195.6 92.5001 195 92.5001 194.45C92.5001 193.95 92.7501 193.5 93.0001 193.5C93.3001 193.5 93.5001 192.8 93.5001 192C93.5001 191.15 93.7501 190.5 94.0001 190.5C94.3001 190.5 94.5001 190.05 94.5001 189.5C94.5001 188.95 94.7501 188.5 95.0001 188.5C95.3001 188.5 95.5001 188.05 95.5001 187.55C95.5001 187 95.7001 186.4 96.0001 186.25C96.2501 186.1 96.5001 185.4 96.5001 184.7C96.5001 184.05 96.7501 183.5 97.0001 183.5C97.3001 183.5 97.5001 183.05 97.5001 182.5C97.5001 181.95 97.7501 181.5 98.0001 181.5C98.3001 181.5 98.5001 181.05 98.5001 180.5C98.5001 179.95 98.7501 179.5 99.0001 179.5C99.3001 179.5 99.5001 179.05 99.5001 178.5C99.5001 177.95 99.7501 177.5 100 177.5C100.3 177.5 100.5 177.05 100.5 176.5C100.5 175.95 100.75 175.5 101 175.5C101.3 175.5 101.5 175.05 101.5 174.5C101.5 173.95 101.75 173.5 102 173.5C102.3 173.5 102.5 173.15 102.5 172.75C102.5 172.3 102.95 171.5 103.5 170.9C104.05 170.3 104.5 169.5 104.5 169.15C104.5 168.8 104.75 168.5 105 168.5C105.3 168.5 105.5 168.05 105.5 167.5C105.5 166.95 105.75 166.5 106 166.5C106.3 166.5 106.5 166.2 106.5 165.85C106.5 165.5 106.95 164.7 107.5 164.1C108.05 163.5 108.5 162.75 108.5 162.4C108.5 162 108.95 161.4 109.5 161C110.05 160.6 110.5 159.95 110.5 159.5C110.5 159.05 110.95 158.4 111.5 158C112.05 157.6 112.5 156.95 112.5 156.5C112.5 156.05 112.95 155.4 113.5 155C114.05 154.6 114.5 154 114.5 153.7C114.5 153.4 115.15 152.45 116 151.6C116.8 150.7 117.5 149.8 117.5 149.55C117.5 149.3 118.4 148.2 119.5 147.05C120.6 145.95 121.5 144.8 121.5 144.55C121.5 143.4 143.3 121.5 144.45 121.5C144.7 121.5 145.8 120.6 146.95 119.5C148.05 118.4 149.2 117.5 149.45 117.5C149.65 117.5 150.55 116.8 151.4 116C152.3 115.15 153.25 114.5 153.55 114.5C153.9 114.5 154.5 114.1 154.95 113.6C155.4 113.15 156.35 112.45 157.15 112.05C157.9 111.65 158.5 111.15 158.5 110.9C158.5 110.7 158.8 110.5 159.15 110.5C159.5 110.5 160.25 110.1 160.8 109.6C161.3 109.15 162.35 108.45 163.15 108.05C163.9 107.65 164.5 107.15 164.5 106.9C164.5 106.7 164.95 106.5 165.5 106.5C166.05 106.5 166.5 106.3 166.5 106.05C166.5 105.8 166.9 105.5 167.4 105.35C168.55 104.95 171.2 103.35 171.4 102.85C171.5 102.65 172 102.5 172.55 102.5C173.05 102.5 173.5 102.25 173.5 102C173.5 101.7 173.95 101.5 174.5 101.5C175.05 101.5 175.5 101.25 175.5 101C175.5 100.7 175.95 100.5 176.5 100.5C177.05 100.5 177.5 100.25 177.5 99.9999C177.5 99.6999 177.95 99.4999 178.5 99.4999C179.05 99.4999 179.5 99.2499 179.5 98.9999C179.5 98.6999 179.95 98.4999 180.5 98.4999C181.05 98.4999 181.5 98.2499 181.5 97.9999C181.5 97.6999 181.95 97.4999 182.5 97.4999C183.05 97.4999 183.5 97.2499 183.5 96.9999C183.5 96.6999 183.95 96.4999 184.45 96.4999C185 96.4999 185.6 96.2499 185.75 95.9999C185.9 95.6999 186.6 95.4999 187.3 95.4999C187.95 95.4999 188.5 95.2499 188.5 94.9999C188.5 94.6999 188.95 94.4999 189.5 94.4999C190.05 94.4999 190.5 94.2499 190.5 93.9999C190.5 93.6999 191.2 93.4999 192 93.4999C192.85 93.4999 193.5 93.2499 193.5 92.9999C193.5 92.6999 193.95 92.4999 194.5 92.4999C195.05 92.4999 195.95 92.2499 196.5 91.9999C197.05 91.6999 197.95 91.2499 198.5 90.9999C199.05 90.6999 199.95 90.4999 200.45 90.4999C201 90.4999 201.6 90.2499 201.75 89.9999C201.9 89.6999 202.7 89.4999 203.5 89.4999C204.3 89.4999 205.1 89.2499 205.25 88.9999C205.4 88.6999 206.2 88.4999 207.05 88.4999C207.85 88.4999 208.5 88.2499 208.5 87.9999C208.5 87.6999 209.25 87.4999 210.2 87.4999C211.15 87.4999 212.1 87.2499 212.25 86.9999C212.4 86.6999 213.3 86.4999 214.25 86.4999C215.2 86.4999 216.1 86.2499 216.25 85.9999C216.4 85.6999 217.45 85.4999 218.55 85.4999C219.6 85.4999 220.5 85.2499 220.5 84.9999C220.5 84.6999 221.7 84.4999 223.2 84.4999C224.7 84.4999 226.1 84.2499 226.25 83.9999C226.4 83.6999 227.75 83.4999 229.25 83.4999C230.75 83.4999 232.1 83.2499 232.25 82.9999C232.4 82.6999 234.35 82.4999 236.5 82.4999C238.65 82.4999 240.6 82.2499 240.75 81.9999C240.95 81.6999 246.6 81.4999 256 81.4999C265.4 81.4999 271.05 81.6999 271.25 81.9999Z" fill="black"/>
<path d="M242.75 152C242.6 152.25 241.1 152.5 239.5 152.5C237.9 152.5 236.4 152.7 236.25 153C236.1 153.25 234.95 153.5 233.7 153.5C232.5 153.5 231.5 153.7 231.5 154C231.5 154.25 230.85 154.5 230.05 154.5C229.2 154.5 228.4 154.7 228.25 155C228.1 155.25 227.4 155.5 226.7 155.5C226.05 155.5 225.5 155.7 225.5 156C225.5 156.25 224.95 156.5 224.3 156.5C223.6 156.5 222.9 156.7 222.75 157C222.6 157.25 222 157.5 221.45 157.5C220.95 157.5 220.5 157.7 220.5 158C220.5 158.25 220.05 158.5 219.5 158.5C218.95 158.5 218.5 158.7 218.5 159C218.5 159.25 218.1 159.5 217.6 159.5C217.1 159.5 216.4 159.95 216 160.5C215.6 161.05 214.95 161.5 214.5 161.5C214.05 161.5 213.4 161.95 213 162.5C212.6 163.05 212 163.5 211.65 163.5C210.25 163.5 198.5 175.35 198.5 176.75C198.5 177.05 198.05 177.6 197.5 178C196.95 178.4 196.5 179 196.5 179.4C196.5 179.75 196.05 180.5 195.5 181.1C194.95 181.7 194.5 182.5 194.5 182.85C194.5 183.2 194.3 183.5 194 183.5C193.75 183.5 193.5 183.95 193.5 184.5C193.5 185.05 193.3 185.5 193 185.5C192.75 185.5 192.5 185.95 192.5 186.5C192.5 187.05 192.3 187.5 192 187.5C191.75 187.5 191.5 188.05 191.5 188.7C191.5 189.4 191.3 190.1 191 190.25C190.75 190.4 190.5 191 190.5 191.55C190.5 192.05 190.3 192.5 190 192.5C189.75 192.5 189.5 193.15 189.5 194C189.5 194.8 189.3 195.5 189 195.5C188.75 195.5 188.5 196.15 188.5 196.95C188.5 197.8 188.3 198.6 188 198.75C187.7 198.9 187.5 201.35 187.5 204.3C187.5 207.45 187.7 209.5 188 209.5C188.3 209.5 188.5 209.8 188.5 210.15C188.5 211.05 189.7 213.5 190.15 213.5C190.35 213.5 190.5 213.8 190.5 214.1C190.5 215 192.5 217.15 194.15 217.95C194.9 218.35 195.5 218.85 195.5 219.1C195.5 219.3 195.95 219.5 196.5 219.5C197.05 219.5 197.5 219.7 197.5 220C197.5 220.25 198.4 220.5 199.45 220.5C200.55 220.5 201.6 220.7 201.75 221C201.9 221.25 203.05 221.5 204.25 221.5C205.45 221.5 206.6 221.25 206.75 221C206.9 220.7 207.85 220.5 208.8 220.5C209.75 220.5 210.5 220.25 210.5 220C210.5 219.7 211.05 219.5 211.7 219.5C214 219.5 220.5 212.15 220.5 209.5C220.5 209 220.75 208.4 221 208.25C221.3 208.1 221.5 207.4 221.5 206.75C221.5 206.1 221.75 205.4 222 205.25C222.3 205.1 222.5 204.4 222.5 203.7C222.5 203.05 222.75 202.5 223 202.5C223.3 202.5 223.5 202.05 223.5 201.5C223.5 200.95 223.7 200.5 223.9 200.5C224.15 200.5 224.65 199.9 225.05 199.1C225.45 198.35 226.15 197.4 226.6 196.95C227.1 196.5 227.5 195.9 227.5 195.6C227.5 195.3 228.4 194.3 229.5 193.4C230.65 192.5 232.15 191.25 232.9 190.65C233.65 190 234.55 189.5 234.9 189.5C235.2 189.5 235.5 189.25 235.5 189C235.5 188.7 235.95 188.5 236.5 188.5C237.05 188.5 237.5 188.25 237.5 188C237.5 187.7 238.2 187.5 239 187.5C239.85 187.5 240.5 187.25 240.5 187C240.5 186.7 241.65 186.5 243 186.5C244.4 186.5 245.5 186.25 245.5 186C245.5 185.7 247.55 185.5 250.7 185.5C253.65 185.5 256.1 185.7 256.25 186C256.4 186.25 257.55 186.5 258.75 186.5C259.95 186.5 261.1 186.7 261.25 187C261.4 187.25 262.2 187.5 263.05 187.5C263.85 187.5 264.5 187.7 264.5 188C264.5 188.25 264.95 188.5 265.5 188.5C266.05 188.5 266.5 188.7 266.5 189C266.5 189.25 266.95 189.5 267.5 189.5C268.05 189.5 268.5 189.7 268.5 190C268.5 190.25 268.9 190.5 269.4 190.5C269.9 190.5 270.6 190.95 271 191.5C271.4 192.05 271.95 192.5 272.25 192.5C272.95 192.5 276.5 195.75 276.5 196.35C276.5 196.6 276.95 197.3 277.5 197.9C278.9 199.4 280.5 202.35 280.5 203.5C280.5 204.05 280.75 204.5 281 204.5C281.3 204.5 281.5 206.5 281.5 209.45C281.5 212.25 281.3 214.6 281 214.75C280.75 214.9 280.5 215.6 280.5 216.3C280.5 216.95 280.3 217.5 280 217.5C279.75 217.5 279.5 217.95 279.5 218.5C279.5 219.05 279.3 219.5 279 219.5C278.75 219.5 278.5 219.8 278.5 220.2C278.5 220.55 277.9 221.5 277.1 222.3C276.35 223.1 275.2 224.55 274.5 225.5C273 227.65 270.85 229.8 268.3 231.7C265.95 233.45 248.5 250.8 248.5 251.4C248.5 251.6 247.6 252.8 246.5 254C245.4 255.2 244.5 256.4 244.5 256.65C244.5 256.85 244.05 257.5 243.5 258.1C242.95 258.7 242.5 259.5 242.5 259.85C242.5 260.2 242.3 260.5 242 260.5C241.75 260.5 241.5 260.95 241.5 261.45C241.5 262 241.35 262.5 241.15 262.6C240.6 262.8 238.5 266.95 238.5 267.8C238.5 268.2 238.3 268.5 238 268.5C237.75 268.5 237.5 268.95 237.5 269.45C237.5 270 237.3 270.6 237 270.75C236.75 270.9 236.5 271.6 236.5 272.25C236.5 272.9 236.3 273.6 236 273.75C235.75 273.9 235.5 274.85 235.5 275.8C235.5 276.75 235.3 277.5 235 277.5C234.75 277.5 234.5 278.7 234.5 280.2C234.5 281.7 234.3 283.1 234 283.25C233.7 283.45 233.5 286.75 233.5 291.55C233.5 296.5 233.7 299.5 234 299.5C234.3 299.5 234.5 300.15 234.5 301C234.5 301.8 234.75 302.5 235 302.5C235.3 302.5 235.5 302.9 235.5 303.4C235.5 303.9 235.95 304.6 236.5 305C237.05 305.4 237.5 306 237.5 306.35C237.5 306.7 237.95 307.2 238.45 307.5C239 307.75 239.75 308.3 240.15 308.7C241.5 310.05 244.5 311.5 246 311.5C246.85 311.5 247.5 311.7 247.5 312C247.5 312.3 248.85 312.5 250.5 312.5C252.15 312.5 253.5 312.3 253.5 312C253.5 311.7 254.4 311.5 255.5 311.5C256.6 311.5 257.5 311.25 257.5 311C257.5 310.7 257.9 310.5 258.4 310.5C258.9 310.5 259.6 310.05 260 309.5C260.4 308.95 261 308.5 261.35 308.5C261.65 308.5 262.6 307.65 263.35 306.6C264.1 305.6 264.9 304.65 265.15 304.6C265.35 304.5 265.5 304 265.5 303.45C265.5 302.95 265.75 302.5 266 302.5C266.3 302.5 266.5 301.95 266.5 301.3C266.5 300.6 266.75 299.9 267 299.75C267.3 299.55 267.5 296.75 267.5 292.95C267.5 289 267.7 286.5 268 286.5C268.3 286.5 268.5 285.8 268.5 285C268.5 284.15 268.75 283.5 269 283.5C269.3 283.5 269.5 283 269.5 282.35C269.5 281.75 269.95 280.7 270.5 280C271.05 279.3 271.5 278.45 271.5 278.1C271.5 277.8 271.7 277.5 271.9 277.5C272.15 277.5 272.65 276.9 273.05 276.15C273.45 275.4 280.65 267.85 289.15 259.4C297.6 250.95 304.5 243.75 304.5 243.4C304.5 243 304.95 242.4 305.5 242C306.05 241.6 306.5 241 306.5 240.6C306.5 240.25 306.95 239.5 307.5 238.9C308.05 238.3 308.5 237.5 308.5 237.15C308.5 236.8 308.75 236.5 309 236.5C309.3 236.5 309.5 236.05 309.5 235.5C309.5 234.95 309.75 234.5 310 234.5C310.3 234.5 310.5 234.05 310.5 233.5C310.5 232.95 310.75 232.5 311 232.5C311.3 232.5 311.5 232.05 311.5 231.55C311.5 231 311.75 230.4 312 230.25C312.3 230.1 312.5 229.4 312.5 228.7C312.5 228.05 312.75 227.5 313 227.5C313.3 227.5 313.5 226.85 313.5 226.05C313.5 225.2 313.75 224.4 314 224.25C314.3 224.1 314.5 222.95 314.5 221.7C314.5 220.5 314.75 219.5 315 219.5C315.3 219.5 315.5 215.95 315.5 209.8C315.5 203.85 315.3 199.95 315 199.75C314.75 199.6 314.5 198.55 314.5 197.45C314.5 196.4 314.3 195.5 314 195.5C313.75 195.5 313.5 194.85 313.5 194.05C313.5 193.2 313.3 192.4 313 192.25C312.75 192.1 312.5 191.4 312.5 190.7C312.5 190.05 312.3 189.5 312 189.5C311.75 189.5 311.5 189.05 311.5 188.5C311.5 187.95 310.95 186.55 310.25 185.4C309.55 184.2 308.85 182.85 308.65 182.35C308.5 181.9 308.2 181.5 307.95 181.5C307.7 181.5 307.5 181.1 307.5 180.6C307.5 180.1 307.05 179.4 306.5 179C305.95 178.6 305.5 178.05 305.5 177.7C305.5 177.4 304.55 176.1 303.4 174.85C302.2 173.6 300.8 172.05 300.2 171.4C297.85 168.85 292.9 164.5 292.35 164.5C292 164.5 291.4 164.05 291 163.5C290.6 162.95 289.95 162.5 289.5 162.5C289.05 162.5 288.4 162.05 288 161.5C287.6 160.95 286.9 160.5 286.4 160.5C285.9 160.5 285.5 160.25 285.5 160C285.5 159.7 285.05 159.5 284.5 159.5C283.95 159.5 283.5 159.25 283.5 159C283.5 158.7 283.05 158.5 282.5 158.5C281.95 158.5 281.5 158.25 281.5 158C281.5 157.7 281.05 157.5 280.55 157.5C280 157.5 279.4 157.25 279.25 157C279.1 156.7 278.4 156.5 277.7 156.5C277.05 156.5 276.5 156.25 276.5 156C276.5 155.7 275.85 155.5 275 155.5C274.2 155.5 273.5 155.25 273.5 155C273.5 154.7 272.85 154.5 272.05 154.5C271.2 154.5 270.4 154.25 270.25 154C270.1 153.7 269.05 153.5 268 153.5C266.95 153.5 265.9 153.25 265.75 153C265.6 152.7 264.1 152.5 262.5 152.5C260.9 152.5 259.4 152.25 259.25 152C259.05 151.7 255.75 151.5 251 151.5C246.25 151.5 242.95 151.7 242.75 152Z" fill="black"/>
<path d="M245.75 327C245.6 327.25 245 327.5 244.5 327.5C242.6 327.5 236.55 331.95 236.5 333.35C236.5 333.55 236.05 334.3 235.5 335C234.95 335.7 234.5 336.75 234.5 337.35C234.5 337.95 234.3 338.6 234 338.75C233.75 338.9 233.5 340.95 233.5 343.3C233.5 345.75 233.7 347.5 234 347.5C234.3 347.5 234.5 348.15 234.5 349C234.5 349.8 234.75 350.5 235 350.5C235.3 350.5 235.5 350.85 235.5 351.3C235.5 351.75 235.9 352.5 236.4 352.95C236.85 353.4 237.5 354.2 237.8 354.7C238.1 355.25 238.75 355.9 239.3 356.2C239.8 356.5 240.6 357.15 241.05 357.6C241.5 358.1 242.2 358.5 242.65 358.5C243.1 358.5 243.6 358.7 243.75 359C243.9 359.25 244.8 359.5 245.75 359.5C246.7 359.5 247.6 359.7 247.75 360C247.9 360.25 249.3 360.5 250.8 360.5C252.3 360.5 253.5 360.25 253.5 360C253.5 359.7 254.4 359.5 255.5 359.5C256.6 359.5 257.5 359.25 257.5 359C257.5 358.7 257.95 358.5 258.5 358.5C259.05 358.5 259.5 358.3 259.5 358.1C259.5 357.85 260.1 357.35 260.9 356.95C262.5 356.15 264.5 354 264.5 353.1C264.5 352.8 264.75 352.5 265 352.5C265.3 352.5 265.5 352.05 265.5 351.5C265.5 350.95 265.75 350.5 266 350.5C266.3 350.5 266.5 349.95 266.5 349.3C266.5 348.6 266.75 347.9 267 347.75C267.3 347.6 267.5 345.45 267.5 342.95C267.5 340.3 267.3 338.5 267 338.5C266.75 338.5 266.5 337.8 266.5 337C266.5 336.15 266.3 335.5 266 335.5C265.75 335.5 265.5 335.2 265.5 334.8C265.5 333.85 260.15 328.5 259.2 328.5C258.8 328.5 258.5 328.25 258.5 328C258.5 327.7 257.85 327.5 257.05 327.5C256.2 327.5 255.4 327.25 255.25 327C255.1 326.7 252.95 326.5 250.5 326.5C248.05 326.5 245.9 326.7 245.75 327Z" fill="black"/>
</svg>
